<svg viewBox="0 0 1024 1024" version="1.1" xmlns="http://www.w3.org/2000/svg" xmlns:xlink="http://www.w3.org/1999/xlink" width="128" height="128">
    <path d="M985.29086342 914.1990408h-946.58172684l242.73340547-100.54976019h1.1783175l701.46026459 100.04701138z" fill="#4a91ff"></path><path d="M985.29086342 109.8009592l-242.73340547 100.54976019-703.7854778-100.53404929-0.03142178-0.0157109z" fill="#bad5ff" ></path><path d="M512 440.90817735l-30.79336407 30.79336407L281.44254205 210.35071939l135.05089666 135.0508967z" fill="#9fc4ff" p-id="1090"></path><path d="M984.91380185 913.8219792l-0.83267771-0.12568721L742.55745795 813.64928061 542.79336407 552.29845858 583.09182265 512l124.94878794 124.94878796L884.74110324 813.64928061z" fill="#9fc4ff"></path><path d="M481.20663593 471.70154142L440.90817735 512l-402.19904077-402.1990408h0.03142179l0.03142178 0.0157109L281.44254205 210.35071939zM742.55745795 813.64928061h-0.0157109l-135.03518576-135.0508967L512 583.09182265l30.79336407-30.79336407z" fill="#68a3ff"></path><path d="M985.29086342 914.1990408l-1.20973928-0.50274881 0.83267771 0.12568721z" fill="#FFFFFF"></path><path d="M984.86666912 110.22515351L633.35099184 461.74083079 583.09182265 512l-40.29845858 40.29845858-30.79336407 30.79336407-95.50656129 95.50656126-134.89378767 134.90949859-0.14139809 0.14139811h-0.0157109l-242.73340547 100.54976019 1.22545018-1.2254502 134.98805308-114.68957024L511.84289099 512.0785545l0.15710901-0.06284359-0.03142179-0.0471327z" fill="#68a3ff"></path><path d="M985.29086342 109.8009592l-0.4241943 0.42419431-472.89809091 401.7434247-0.12568722 0.10997629-336.92025115 286.20546586-134.98805308 114.68957024 117.21902513-117.21902513 158.80577752-158.80577751L390.63329726 562.27488011 512 440.90817735l95.50656129-95.50656126L742.55745795 210.35071939z" fill="#9fc4ff"></path><path d="M512 512.01571091l-0.15710901 0.06284359 0.12568722-0.10997629z" fill="#FFFFFF"></path><path d="M742.55745795 210.35071939h-461.1149159l-242.6705619-100.53404929z" fill="#87b6ff"></path><path d="M984.08112414 913.69629199L282.62085955 813.64928061h459.9365984z" fill="#87b6ff"></path>
</svg>
